# xmcd
#
# Track frame offsets: 
#        150
#        28579
#        45616
#        71010
#        103153
#        132549
#        154227
#        185386
#        216000
#
# Disc length: 3044 seconds
#
# Revision: 0
# Processed by: cddbd v1.5.2PL0 Copyright (c) Steve Scherf et al.
# Submitted via: ExactAudioCopy v0.99pb3
#
DISCID=810be209
DTITLE=Affrissippi - Alliance
DYEAR=2008
DGENRE=Blues
TTITLE0=Singha
TTITLE1=Guelel Kumba
TTITLE2=Leeliyo Leele
TTITLE3=Maasina Tooro
TTITLE4=Debbo Ndoogu
TTITLE5=Sonna
TTITLE6=Raas
TTITLE7=Ngoppe Kam
TTITLE8=Gede Nooro
EXTD=
EXTT0=
EXTT1=
EXTT2=
EXTT3=
EXTT4=
EXTT5=
EXTT6=
EXTT7=
EXTT8=
PLAYORDER=
